<svg width="26" height="20" viewBox="0 0 26 20" fill="none" xmlns="http://www.w3.org/2000/svg">
<path d="M18.85 9.9999C20.644 9.9999 22.087 8.5439 22.087 6.7499C22.087 4.9559 20.644 3.4999 18.85 3.4999C17.056 3.4999 15.6 4.9559 15.6 6.7499C15.6 8.5439 17.056 9.9999 18.85 9.9999ZM9.1 8.6999C11.258 8.6999 12.987 6.9579 12.987 4.7999C12.987 2.6419 11.258 0.899902 9.1 0.899902C6.942 0.899902 5.2 2.6419 5.2 4.7999C5.2 6.9579 6.942 8.6999 9.1 8.6999ZM18.85 12.5999C16.471 12.5999 11.7 13.7959 11.7 16.1749V19.0999H26V16.1749C26 13.7959 21.229 12.5999 18.85 12.5999ZM9.1 11.2999C6.071 11.2999 0 12.8209 0 15.8499V19.0999H9.1V16.1749C9.1 15.0699 9.529 13.1329 12.181 11.6639C11.05 11.4299 9.958 11.2999 9.1 11.2999Z" fill="#191F29"/>
</svg>
