<svg width="26" height="18" viewBox="0 0 26 18" fill="none" xmlns="http://www.w3.org/2000/svg">
<path d="M14.56 14.2002H16.64V13.1602H17.68C18.252 13.1602 18.72 12.6922 18.72 12.1202V9.00018C18.72 8.42818 18.252 7.96018 17.68 7.96018H14.56V6.92018H18.72V4.84018H16.64V3.80018H14.56V4.84018H13.52C12.948 4.84018 12.48 5.30818 12.48 5.88018V9.00018C12.48 9.57218 12.948 10.0402 13.52 10.0402H16.64V11.0802H12.48V13.1602H14.56V14.2002ZM23.92 0.680176H7.28C6.1256 0.680176 5.2104 1.60578 5.2104 2.76018L5.2 15.2402C5.2 16.3946 6.1256 17.3202 7.28 17.3202H23.92C25.0744 17.3202 26 16.3946 26 15.2402V2.76018C26 1.60578 25.0744 0.680176 23.92 0.680176ZM23.92 15.2402H5.2L5.2104 2.76018H23.92V15.2402Z" fill="#191F29"/>
<path d="M6.24 4.37795L4.94578 5.67218L7.34933 8.07573H0V10.0402L7.34933 9.92462L4.94578 12.3282L6.24 13.6224L10.8622 9.00018L6.24 4.37795ZM14.56 15.4713H7.16444V17.3202H14.56C15.5769 17.3202 14.56 16.2571 14.56 15.2402L14.56 2.52906C14.56 1.51218 15.5769 0.680176 14.56 0.680176H7.16444V2.52906H14.56V15.4713Z" fill="#191F29"/>
</svg>
