<svg width="26" height="18" viewBox="0 0 26 18" fill="none" xmlns="http://www.w3.org/2000/svg">
<path d="M11.4398 3.79988H9.35985V4.83988H8.31986C7.74786 4.83988 7.27986 5.30787 7.27986 5.87987V8.99986C7.27986 9.57186 7.74786 10.0399 8.31986 10.0399L11.4398 10.0399L11.4398 11.0799L7.27986 11.0799V13.1598H9.35985V14.1998H11.4398V13.1598H12.4798C13.0518 13.1598 13.5198 12.6918 13.5198 12.1198V8.99986C13.5198 8.42786 13.0518 7.95986 12.4798 7.95986H9.35985V6.91987H13.5198L13.5198 4.83988H11.4398V3.79988ZM2.07988 17.3198L18.7198 17.3198C19.8742 17.3198 20.7894 16.3942 20.7894 15.2398L20.7998 2.75989C20.7998 1.71989 19.8742 0.679895 18.7198 0.679895L2.07988 0.679895C0.925489 0.679895 -0.000106812 1.60549 -0.000106812 2.75989L-0.000106812 15.2398C-0.000106812 16.3942 0.925489 17.3198 2.07988 17.3198ZM2.07988 2.75989L20.7998 2.75989L20.7894 15.2398L2.07988 15.2398L2.07988 2.75989Z" fill="#191F29"/>
<path d="M21.3777 4.37794L20.0835 5.67215L22.487 8.0757H15.1377V10.0401L22.487 9.92458L20.0835 12.3281L21.3777 13.6223L25.9999 9.00014L21.3777 4.37794Z" fill="#191F29"/>
</svg>
